<?xml version="1.0" encoding="UTF-8"?>
<svg width="216px" height="91px" viewBox="0 0 216 91" version="1.1" xmlns="http://www.w3.org/2000/svg" xmlns:xlink="http://www.w3.org/1999/xlink">
    <!-- Generator: Sketch 41.2 (35397) - http://www.bohemiancoding.com/sketch -->
    <title>BASH_logo-transparent-bg-bw</title>
    <desc>Created with Sketch.</desc>
    <defs>
        <polygon id="path-1" points="0.0001 91 79.3701 91 79.3701 0.2939 0.0001 0.2939 0.0001 91"></polygon>
        <polygon id="path-3" points="28.43 40.3456 28.43 0.9396 0.4917 0.9396 0.4917 40.3456 28.43 40.3456"></polygon>
        <polygon id="path-5" points="0 90.71 215.43 90.71 215.43 -1.42108547e-14 0 -1.42108547e-14"></polygon>
    </defs>
    <g id="Page-1" stroke="none" stroke-width="1" fill="none" fill-rule="evenodd">
        <g id="BASH_logo-transparent-bg-bw">
            <g id="Group-3" transform="translate(0.000000, -0.290000)">
                <mask id="mask-2" fill="white">
                    <use xlink:href="#path-1"></use>
                </mask>
                <g id="Clip-2"></g>
                <path d="M71.6571,25.9829 L44.5651,42.7169 C41.1871,44.6919 38.6951,46.9079 38.6941,50.9809 L38.6941,84.3639 C38.6921,86.8029 39.6771,88.3829 41.1891,88.8409 C40.6931,88.9269 40.1911,88.9869 39.6851,88.9869 C38.0991,88.9869 36.5351,88.5559 35.1621,87.7409 L6.5251,70.7449 C3.7241,69.0819 1.9841,65.9799 1.9841,62.6479 L1.9841,28.6509 C1.9841,25.3189 3.7241,22.2169 6.5241,20.5549 L35.1611,3.5559 C36.5351,2.7409 38.0991,2.3099 39.6841,2.3099 C41.2701,2.3099 42.8341,2.7409 44.2071,3.5559 L72.8451,20.5549 C75.2051,21.9559 76.7971,24.3819 77.2441,27.1029 C76.2951,25.0759 74.1531,24.5249 71.6571,25.9829 L71.6571,25.9829 Z M66.6801,67.7929 C66.6801,68.0199 66.6511,68.2309 66.4621,68.3409 L59.2211,72.7419 C59.0321,72.8519 58.8791,72.7569 58.8791,72.5299 L58.8791,70.6639 C58.8791,70.4369 59.0191,70.3129 59.2081,70.2019 L66.3391,65.9349 C66.5281,65.8239 66.6811,65.9199 66.6801,66.1469 L66.6801,67.7929 Z M51.6671,71.9019 L51.7141,74.3439 C51.7171,74.6389 51.5261,74.9749 51.2951,75.0919 L49.8491,75.9249 C49.6171,76.0419 49.4271,75.8989 49.4241,75.6039 L49.3991,73.2019 C48.1601,73.7169 46.9051,73.8409 46.1041,73.5189 C45.9521,73.4599 45.8871,73.2369 45.9471,72.9829 L46.4711,70.7749 C46.5131,70.6009 46.6051,70.4269 46.7301,70.3159 C46.7741,70.2729 46.8201,70.2399 46.8661,70.2169 C46.9491,70.1749 47.0301,70.1659 47.1001,70.1929 C47.9631,70.4829 49.0681,70.3469 50.1311,69.8089 C51.4811,69.1259 52.3841,67.7489 52.3701,66.3809 C52.3571,65.1399 51.6851,64.6239 50.0511,64.6119 C47.9721,64.6179 46.0321,64.2089 46.0001,61.1459 C45.9741,58.6249 47.2851,56.0019 49.3601,54.3439 L49.3341,51.8779 C49.3311,51.5759 49.5161,51.2419 49.7541,51.1219 L51.1541,50.2279 C51.3851,50.1109 51.5751,50.2549 51.5791,50.5569 L51.6021,53.0239 C52.6351,52.6139 53.5321,52.5029 54.3451,52.6909 C54.5211,52.7379 54.5991,52.9779 54.5271,53.2629 L53.9841,55.4489 C53.9421,55.6139 53.8491,55.7809 53.7371,55.8859 C53.6901,55.9319 53.6421,55.9669 53.5941,55.9909 C53.5211,56.0279 53.4491,56.0399 53.3811,56.0259 C53.0091,55.9429 52.1271,55.7489 50.7391,56.4519 C49.2831,57.1889 48.7751,58.4539 48.7841,59.3929 C48.7961,60.5139 49.3711,60.8549 51.3571,60.8889 C54.0031,60.9319 55.1471,62.0889 55.1741,64.7529 C55.2011,67.3699 53.8041,70.1799 51.6671,71.9019 L51.6671,71.9019 Z M73.8461,18.8139 L45.2081,1.8159 C43.4991,0.8009 41.5921,0.2939 39.6841,0.2939 C37.7771,0.2939 35.8691,0.8009 34.1601,1.8159 L5.5231,18.8139 C2.1051,20.8429 0.0001,24.5929 0.0001,28.6509 L0.0001,62.6479 C0.0001,66.7049 2.1051,70.4559 5.5241,72.4849 L34.1611,89.4809 C35.8701,90.4959 37.7761,91.0019 39.6851,91.0019 C41.5921,91.0019 43.4991,90.4959 45.2081,89.4809 L73.8451,72.4849 C77.2631,70.4559 79.3701,66.7049 79.3701,62.6479 L79.3701,28.6509 C79.3701,24.5929 77.2631,20.8429 73.8461,18.8139 L73.8461,18.8139 Z" id="Fill-1" fill="#1A1918" mask="url(#mask-2)"></path>
            </g>
            <path d="M98.53,47.9133 L104.841,47.9133 C105.732,47.9413 106.566,48.0853 107.321,48.3393 C108.04,48.5793 108.672,48.9263 109.201,49.3693 C109.718,49.8033 110.115,50.3213 110.411,50.9483 C110.701,51.5673 110.842,52.3013 110.827,53.1563 C110.827,53.9633 110.668,54.6823 110.353,55.2933 C110.028,55.9263 109.601,56.4443 109.052,56.8763 C108.479,57.3253 107.806,57.6823 107.053,57.9373 C106.285,58.1963 105.46,58.3363 104.626,58.3493 L98.53,58.3493 L98.53,47.9133 Z M109.371,38.6143 C109.042,39.1733 108.624,39.6313 108.093,40.0133 C107.542,40.4083 106.9,40.7173 106.181,40.9283 C105.435,41.1493 104.662,41.2683 103.911,41.2823 L98.53,41.2823 L98.53,32.3823 L103.751,32.3823 C104.59,32.3973 105.419,32.5013 106.217,32.6933 C106.951,32.8683 107.603,33.1433 108.153,33.5073 C108.668,33.8483 109.068,34.2753 109.377,34.8113 C109.672,35.3253 109.822,35.9843 109.822,36.7693 C109.822,37.4933 109.674,38.0963 109.371,38.6143 L109.371,38.6143 Z M116.406,46.6783 C115.692,45.8163 114.831,45.0703 113.847,44.4613 C113.726,44.3873 113.604,44.3153 113.48,44.2443 C114.265,43.7203 114.963,43.1033 115.558,42.4083 C116.194,41.6653 116.699,40.8183 117.062,39.8933 C117.427,38.9623 117.622,37.9273 117.643,36.8073 C117.663,34.8653 117.256,33.1563 116.432,31.7263 C115.622,30.3203 114.521,29.1483 113.161,28.2393 C111.842,27.3603 110.323,26.7033 108.645,26.2853 C107.02,25.8813 105.335,25.6673 103.62,25.6493 L92.157,25.6493 C91.357,25.6493 90.708,26.2663 90.708,27.0273 L90.708,63.6783 C90.708,64.4393 91.357,65.0563 92.157,65.0563 L104.509,65.0563 C106.287,65.0383 108.038,64.7703 109.713,64.2613 C111.414,63.7433 112.942,62.9853 114.255,62.0063 C115.599,61.0053 116.685,59.7463 117.483,58.2653 C118.294,56.7633 118.695,55.0223 118.675,53.1053 C118.675,51.8653 118.474,50.6883 118.079,49.6073 C117.684,48.5273 117.121,47.5423 116.406,46.6783 L116.406,46.6783 Z" id="Fill-4" fill="#1A1918"></path>
            <path d="M139.8919,48.7588 L133.5639,48.7588 L136.7529,38.9318 L139.8919,48.7588 Z M140.2089,26.6098 C140.0179,26.0378 139.4599,25.6498 138.8279,25.6498 L134.7249,25.6498 C134.0959,25.6498 133.5399,26.0348 133.3469,26.6038 L120.9039,63.2558 C120.7619,63.6748 120.8389,64.1328 121.1119,64.4898 C121.3849,64.8458 121.8199,65.0558 122.2829,65.0558 L127.1809,65.0558 C127.8149,65.0558 128.3759,64.6628 128.5639,64.0868 L131.3449,55.5648 L142.0709,55.5648 L144.8019,64.0808 C144.9879,64.6608 145.5509,65.0558 146.1879,65.0558 L151.0589,65.0558 C151.5209,65.0558 151.9549,64.8468 152.2279,64.4918 C152.5009,64.1378 152.5789,63.6808 152.4389,63.2618 L140.2089,26.6098 Z" id="Fill-6" fill="#1A1918"></path>
            <path d="M181.8718,48.0946 C181.2168,47.2546 180.4438,46.4956 179.5708,45.8356 C178.7318,45.1996 177.8168,44.6236 176.8518,44.1196 C175.9048,43.6256 174.9038,43.1816 173.8758,42.7976 C172.8878,42.4316 171.8868,42.0956 170.8868,41.7956 C170.0388,41.5486 169.1308,41.2586 168.1878,40.9346 C167.3128,40.6356 166.4908,40.2566 165.7438,39.8076 C165.0678,39.4016 164.5058,38.9026 164.0718,38.3236 C163.6958,37.8216 163.5058,37.1986 163.4938,36.4416 C163.4938,35.6906 163.6408,35.0636 163.9448,34.5216 C164.2628,33.9566 164.6768,33.4936 165.2108,33.1086 C165.7638,32.7086 166.4098,32.4026 167.1298,32.1996 C168.8138,31.7226 170.7028,31.7936 172.0678,32.3006 C172.8068,32.5746 173.4508,32.9626 173.9788,33.4506 C174.5138,33.9466 174.9528,34.5536 175.2818,35.2536 C175.6278,35.9906 175.8658,36.8306 175.9888,37.7486 C176.0798,38.4356 176.6958,38.9516 177.4258,38.9516 L182.4548,38.9516 C182.8448,38.9516 183.2178,38.8036 183.4898,38.5386 C183.7628,38.2746 183.9118,37.9166 183.9038,37.5466 C183.8638,35.6686 183.4288,33.9346 182.6098,32.3946 C181.7998,30.8756 180.7068,29.5616 179.3628,28.4886 C178.0368,27.4316 176.4978,26.6016 174.7888,26.0186 C171.5458,24.9156 167.9418,24.8566 164.4988,25.8756 C162.8428,26.3666 161.3388,27.0976 160.0288,28.0456 C158.6928,29.0116 157.5968,30.2136 156.7708,31.6146 C155.9188,33.0586 155.4868,34.7076 155.4868,36.5176 C155.4868,38.3396 155.9258,39.9616 156.7908,41.3396 C157.6118,42.6466 158.6838,43.7956 159.9768,44.7526 C161.2218,45.6756 162.6168,46.4626 164.1218,47.0926 C165.5668,47.6976 167.0068,48.2216 168.4048,48.6526 C169.3228,48.9336 170.2798,49.2456 171.2758,49.5916 C172.1808,49.9066 173.0208,50.3036 173.7708,50.7716 C174.4588,51.2006 175.0048,51.7116 175.4368,52.3316 C175.8178,52.8796 176.0028,53.5606 176.0028,54.4156 C176.0028,55.1756 175.8448,55.7966 175.5198,56.3136 C175.1648,56.8786 174.7208,57.3326 174.1638,57.7016 C173.5838,58.0836 172.9088,58.3716 172.1528,58.5556 C170.3408,58.9996 168.3698,58.9296 166.8158,58.4526 C165.9828,58.1976 165.2408,57.8166 164.6108,57.3196 C163.9828,56.8246 163.4608,56.2086 163.0578,55.4906 C162.6478,54.7606 162.3718,53.8966 162.2368,52.9256 C162.1418,52.2406 161.5268,51.7286 160.8008,51.7286 L155.7978,51.7286 C155.4058,51.7286 155.0308,51.8786 154.7588,52.1456 C154.4858,52.4126 154.3378,52.7736 154.3488,53.1456 C154.4088,55.1086 154.9078,56.8946 155.8328,58.4536 C156.7358,59.9766 157.9278,61.2836 159.3748,62.3406 C160.7958,63.3806 162.4268,64.1876 164.2208,64.7386 C165.9978,65.2836 167.8398,65.5596 169.6958,65.5596 C171.3558,65.5596 173.0378,65.3346 174.6938,64.8916 C176.3798,64.4406 177.9178,63.7546 179.2638,62.8546 C180.6438,61.9316 181.7848,60.7616 182.6538,59.3746 C183.5538,57.9396 184.0098,56.2526 184.0098,54.3646 C184.0098,53.1276 183.8178,51.9716 183.4398,50.9306 C183.0658,49.9036 182.5388,48.9496 181.8718,48.0946" id="Fill-8" fill="#1A1918"></path>
            <g id="Group-12" transform="translate(187.000000, 24.710000)">
                <mask id="mask-4" fill="white">
                    <use xlink:href="#path-3"></use>
                </mask>
                <g id="Clip-11"></g>
                <path d="M26.9837,0.9396 L22.3507,0.9396 C21.5507,0.9396 20.9017,1.5556 20.9017,2.3166 L20.9017,16.6976 L7.9957,16.6976 L7.9957,2.3166 C7.9957,1.5556 7.3477,0.9396 6.5477,0.9396 L1.9407,0.9396 C1.1407,0.9396 0.4917,1.5556 0.4917,2.3166 L0.4917,38.9686 C0.4917,39.7296 1.1407,40.3456 1.9407,40.3456 L6.5477,40.3456 C7.3477,40.3456 7.9957,39.7296 7.9957,38.9686 L7.9957,23.4046 L20.9017,23.4046 L20.9017,38.9686 C20.9017,39.7296 21.5507,40.3456 22.3507,40.3456 L26.9837,40.3456 C27.7837,40.3456 28.4327,39.7296 28.4327,38.9686 L28.4327,2.3166 C28.4327,1.5556 27.7837,0.9396 26.9837,0.9396" id="Fill-10" fill="#1A1918" mask="url(#mask-4)"></path>
            </g>
            <polygon id="Fill-13" fill="#1A1918" points="95.1389 71.4087 93.3859 71.4087 93.3859 76.0987 92.4489 76.0987 92.4489 71.4087 90.7079 71.4087 90.7079 70.6697 95.1389 70.6697"></polygon>
            <polygon id="Fill-15" fill="#1A1918" points="100.5358 76.0988 99.6188 76.0988 99.6188 73.6758 97.6778 73.6758 97.6778 76.0988 96.7638 76.0988 96.7638 70.6698 97.6778 70.6698 97.6778 72.9408 99.6188 72.9408 99.6188 70.6698 100.5358 70.6698"></polygon>
            <polygon id="Fill-17" fill="#1A1918" points="105.9254 73.6643 103.5764 73.6643 103.5764 75.3683 106.3254 75.3683 106.3254 76.0983 102.6314 76.0983 102.6314 70.6703 106.2974 70.6703 106.2974 71.4083 103.5764 71.4083 103.5764 72.9403 105.9254 72.9403"></polygon>
            <path d="M115.0058,73.6383 L115.0058,75.3683 L116.0328,75.3683 C116.1818,75.3663 116.3178,75.3443 116.4408,75.3033 C116.5638,75.2623 116.6688,75.2053 116.7588,75.1333 C116.8468,75.0613 116.9168,74.9733 116.9678,74.8683 C117.0188,74.7643 117.0448,74.6483 117.0448,74.5183 C117.0448,74.3813 117.0228,74.2593 116.9778,74.1513 C116.9328,74.0423 116.8688,73.9513 116.7858,73.8763 C116.7018,73.8023 116.5998,73.7443 116.4798,73.7033 C116.3598,73.6623 116.2248,73.6413 116.0758,73.6383 L115.0058,73.6383 Z M115.0058,72.9553 L115.9078,72.9553 C116.0488,72.9533 116.1798,72.9353 116.3018,72.9013 C116.4228,72.8683 116.5278,72.8183 116.6168,72.7523 C116.7058,72.6873 116.7768,72.6063 116.8288,72.5103 C116.8808,72.4143 116.9068,72.3043 116.9068,72.1813 C116.9068,72.0443 116.8828,71.9273 116.8328,71.8293 C116.7828,71.7333 116.7128,71.6533 116.6228,71.5913 C116.5328,71.5303 116.4268,71.4843 116.3038,71.4553 C116.1808,71.4263 116.0458,71.4113 115.8998,71.4083 L115.0058,71.4083 L115.0058,72.9553 Z M114.0608,76.0993 L114.0608,70.6703 L115.8838,70.6703 C116.1588,70.6733 116.4148,70.7033 116.6538,70.7603 C116.8938,70.8173 117.1028,70.9063 117.2818,71.0253 C117.4608,71.1443 117.6008,71.2963 117.7028,71.4813 C117.8048,71.6663 117.8548,71.8863 117.8518,72.1403 C117.8498,72.4083 117.7708,72.6373 117.6168,72.8273 C117.4628,73.0183 117.2548,73.1653 116.9938,73.2693 C117.1528,73.3113 117.2948,73.3723 117.4188,73.4503 C117.5428,73.5283 117.6468,73.6223 117.7308,73.7313 C117.8138,73.8413 117.8788,73.9623 117.9228,74.0943 C117.9668,74.2283 117.9898,74.3693 117.9898,74.5183 C117.9898,74.7763 117.9398,75.0043 117.8398,75.2003 C117.7408,75.3963 117.6028,75.5603 117.4268,75.6923 C117.2498,75.8243 117.0408,75.9243 116.7998,75.9923 C116.5578,76.0613 116.2968,76.0973 116.0168,76.0993 L114.0608,76.0993 Z" id="Fill-19" fill="#1A1918"></path>
            <path d="M122.7318,73.0348 C122.7298,72.8308 122.7098,72.6278 122.6728,72.4268 C122.6368,72.2258 122.5748,72.0458 122.4888,71.8888 C122.4018,71.7298 122.2878,71.6028 122.1458,71.5038 C122.0028,71.4058 121.8248,71.3568 121.6108,71.3568 C121.3988,71.3568 121.2228,71.4058 121.0828,71.5038 C120.9438,71.6028 120.8318,71.7308 120.7498,71.8898 C120.6668,72.0488 120.6098,72.2278 120.5768,72.4288 C120.5448,72.6288 120.5268,72.8308 120.5238,73.0348 L120.5238,73.7348 C120.5268,73.9388 120.5458,74.1408 120.5788,74.3418 C120.6138,74.5418 120.6708,74.7218 120.7538,74.8818 C120.8358,75.0418 120.9478,75.1718 121.0868,75.2718 C121.2268,75.3708 121.4028,75.4208 121.6148,75.4208 C121.8288,75.4208 122.0068,75.3708 122.1498,75.2718 C122.2918,75.1718 122.4058,75.0428 122.4928,74.8838 C122.5788,74.7238 122.6398,74.5448 122.6748,74.3428 C122.7098,74.1418 122.7298,73.9388 122.7318,73.7348 L122.7318,73.0348 Z M123.6768,73.7348 C123.6768,74.0558 123.6338,74.3638 123.5468,74.6578 C123.4608,74.9528 123.3318,75.2118 123.1608,75.4378 C122.9898,75.6618 122.7758,75.8408 122.5178,75.9738 C122.2608,76.1068 121.9598,76.1728 121.6148,76.1728 C121.2718,76.1728 120.9738,76.1058 120.7208,75.9718 C120.4668,75.8378 120.2558,75.6578 120.0868,75.4338 C119.9188,75.2088 119.7918,74.9498 119.7068,74.6558 C119.6218,74.3628 119.5798,74.0558 119.5798,73.7348 L119.5798,73.0418 C119.5798,72.8278 119.5978,72.6198 119.6368,72.4158 C119.6738,72.2118 119.7308,72.0198 119.8048,71.8388 C119.8798,71.6588 119.9728,71.4928 120.0828,71.3398 C120.1938,71.1868 120.3248,71.0558 120.4748,70.9468 C120.6258,70.8368 120.7958,70.7508 120.9848,70.6888 C121.1748,70.6278 121.3828,70.5958 121.6108,70.5958 C121.9558,70.5958 122.2568,70.6628 122.5148,70.7978 C122.7718,70.9318 122.9868,71.1118 123.1598,71.3358 C123.3318,71.5618 123.4608,71.8218 123.5468,72.1178 C123.6338,72.4128 123.6768,72.7208 123.6768,73.0418 L123.6768,73.7348 Z" id="Fill-21" fill="#1A1918"></path>
            <path d="M129.2619,70.6702 L129.2699,74.3062 C129.2669,74.5842 129.2199,74.8392 129.1289,75.0682 C129.0369,75.2982 128.9089,75.4952 128.7439,75.6592 C128.5799,75.8232 128.3809,75.9502 128.1459,76.0392 C127.9129,76.1282 127.6509,76.1732 127.3609,76.1732 C127.0779,76.1732 126.8219,76.1282 126.5919,76.0392 C126.3619,75.9502 126.1649,75.8242 125.9999,75.6612 C125.8349,75.4982 125.7069,75.3012 125.6159,75.0712 C125.5239,74.8422 125.4769,74.5862 125.4749,74.3062 L125.4829,70.6702 L126.4079,70.6702 L126.4149,74.3062 C126.4179,74.4722 126.4399,74.6252 126.4819,74.7642 C126.5239,74.9042 126.5839,75.0232 126.6629,75.1232 C126.7409,75.2242 126.8389,75.3032 126.9549,75.3592 C127.0709,75.4152 127.2059,75.4432 127.3609,75.4432 C127.5169,75.4432 127.6559,75.4152 127.7759,75.3592 C127.8959,75.3032 127.9969,75.2242 128.0779,75.1232 C128.1589,75.0232 128.2199,74.9042 128.2629,74.7642 C128.3039,74.6252 128.3259,74.4722 128.3289,74.3062 L128.3369,70.6702 L129.2619,70.6702 Z" id="Fill-23" fill="#1A1918"></path>
            <path d="M132.248,73.2583 L133.114,73.2583 C133.271,73.2583 133.415,73.2373 133.546,73.1953 C133.676,73.1523 133.789,73.0923 133.885,73.0143 C133.98,72.9353 134.054,72.8403 134.106,72.7263 C134.158,72.6143 134.185,72.4833 134.185,72.3373 C134.185,72.1853 134.16,72.0513 134.11,71.9353 C134.06,71.8173 133.989,71.7193 133.896,71.6393 C133.804,71.5603 133.691,71.5003 133.557,71.4593 C133.424,71.4183 133.275,71.3963 133.11,71.3943 L132.248,71.3943 L132.248,73.2583 Z M133.204,73.9813 L132.248,73.9813 L132.248,76.0983 L131.307,76.0983 L131.307,70.6703 L133.11,70.6703 C133.403,70.6733 133.673,70.7083 133.92,70.7773 C134.167,70.8453 134.381,70.9473 134.561,71.0823 C134.742,71.2183 134.881,71.3873 134.98,71.5913 C135.08,71.7953 135.129,72.0333 135.129,72.3073 C135.129,72.4913 135.104,72.6583 135.053,72.8083 C135.002,72.9593 134.931,73.0953 134.839,73.2173 C134.748,73.3383 134.638,73.4453 134.51,73.5373 C134.382,73.6303 134.241,73.7083 134.087,73.7723 L135.294,76.0543 L135.294,76.0983 L134.291,76.0983 L133.204,73.9813 Z" id="Fill-25" fill="#1A1918"></path>
            <polygon id="Fill-27" fill="#1A1918" points="140.7266 76.0988 139.7776 76.0988 137.9196 72.3638 137.9156 76.0988 136.9626 76.0988 136.9626 70.6698 137.9156 70.6698 139.7666 74.3958 139.7746 70.6698 140.7266 70.6698"></polygon>
            <polygon id="Fill-29" fill="#1A1918" points="146.1201 73.6643 143.7711 73.6643 143.7711 75.3683 146.5201 75.3683 146.5201 76.0983 142.8261 76.0983 142.8261 70.6703 146.4921 70.6703 146.4921 71.4083 143.7711 71.4083 143.7711 72.9403 146.1201 72.9403"></polygon>
            <mask id="mask-6" fill="white">
                <use xlink:href="#path-5"></use>
            </mask>
            <g id="Clip-32"></g>
            <polygon id="Fill-31" fill="#1A1918" mask="url(#mask-6)" points="148.91 74.078 152.05 74.078 152.05 73.359 148.91 73.359"></polygon>
            <path d="M155.4826,74.0741 L156.7916,74.0741 L156.1456,71.9461 L155.4826,74.0741 Z M157.0276,74.8391 L155.2436,74.8391 L154.8516,76.0991 L153.8786,76.0991 L155.7336,70.6701 L156.5606,70.6701 L158.3806,76.0991 L157.4116,76.0991 L157.0276,74.8391 Z" id="Fill-33" fill="#1A1918" mask="url(#mask-6)"></path>
            <path d="M163.8319,75.4208 C163.7359,75.5298 163.6219,75.6308 163.4909,75.7228 C163.3599,75.8148 163.2139,75.8938 163.0519,75.9608 C162.8899,76.0278 162.7139,76.0798 162.5249,76.1178 C162.3349,76.1548 162.1329,76.1728 161.9189,76.1728 C161.5759,76.1728 161.2729,76.1098 161.0089,75.9828 C160.7449,75.8568 160.5219,75.6838 160.3409,75.4638 C160.1589,75.2428 160.0209,74.9838 159.9249,74.6858 C159.8299,74.3878 159.7809,74.0668 159.7779,73.7238 L159.7779,73.0538 C159.7779,72.7098 159.8249,72.3898 159.9189,72.0918 C160.0129,71.7928 160.1489,71.5338 160.3249,71.3118 C160.5019,71.0898 160.7179,70.9158 160.9739,70.7888 C161.2299,70.6598 161.5229,70.5958 161.8519,70.5958 C162.1469,70.5958 162.4109,70.6348 162.6439,70.7108 C162.8769,70.7888 163.0769,70.8998 163.2439,71.0458 C163.4109,71.1908 163.5439,71.3678 163.6419,71.5768 C163.7399,71.7848 163.8019,72.0188 163.8279,72.2778 L162.9029,72.2778 C162.8799,72.1308 162.8429,71.9988 162.7929,71.8828 C162.7429,71.7658 162.6769,71.6658 162.5929,71.5838 C162.5089,71.5018 162.4079,71.4398 162.2889,71.3958 C162.1699,71.3518 162.0299,71.3308 161.8679,71.3308 C161.6689,71.3308 161.4989,71.3768 161.3559,71.4698 C161.2139,71.5638 161.0959,71.6888 161.0019,71.8468 C160.9079,72.0048 160.8379,72.1878 160.7929,72.3948 C160.7489,72.6028 160.7249,72.8198 160.7229,73.0458 L160.7229,73.7238 C160.7249,73.9498 160.7499,74.1668 160.7949,74.3728 C160.8409,74.5788 160.9129,74.7618 161.0109,74.9188 C161.1089,75.0768 161.2349,75.2028 161.3889,75.2978 C161.5439,75.3918 161.7289,75.4408 161.9459,75.4428 C162.0349,75.4428 162.1269,75.4378 162.2209,75.4268 C162.3149,75.4148 162.4049,75.3968 162.4889,75.3728 C162.5739,75.3468 162.6519,75.3158 162.7229,75.2778 C162.7929,75.2378 162.8509,75.1908 162.8949,75.1328 L162.9029,74.0478 L161.8719,74.0478 L161.8719,73.3518 L163.8239,73.3518 L163.8319,75.4208 Z" id="Fill-34" fill="#1A1918" mask="url(#mask-6)"></path>
            <path d="M166.9669,74.0741 L168.2759,74.0741 L167.6299,71.9461 L166.9669,74.0741 Z M168.5119,74.8391 L166.7279,74.8391 L166.3359,76.0991 L165.3629,76.0991 L167.2179,70.6701 L168.0449,70.6701 L169.8649,76.0991 L168.8959,76.0991 L168.5119,74.8391 Z" id="Fill-35" fill="#1A1918" mask="url(#mask-6)"></path>
            <polygon id="Fill-36" fill="#1A1918" mask="url(#mask-6)" points="171.6112 70.6702 175.0072 70.6702 175.0072 71.4122 173.7722 71.4122 173.7722 75.3612 175.0072 75.3612 175.0072 76.0992 171.6112 76.0992 171.6112 75.3612 172.8192 75.3612 172.8192 71.4122 171.6112 71.4122"></polygon>
            <polygon id="Fill-37" fill="#1A1918" mask="url(#mask-6)" points="180.9213 76.0988 179.9723 76.0988 178.1143 72.3638 178.1103 76.0988 177.1573 76.0988 177.1573 70.6698 178.1103 70.6698 179.9613 74.3958 179.9693 70.6698 180.9213 70.6698"></polygon>
            <path d="M191.676,74.7009 C191.676,74.5719 191.648,74.4579 191.592,74.3599 C191.535,74.2609 191.456,74.1759 191.352,74.0999 C191.249,74.0259 191.127,73.9609 190.984,73.9049 C190.842,73.8489 190.687,73.7979 190.519,73.7499 C190.295,73.6879 190.073,73.6109 189.855,73.5189 C189.636,73.4269 189.442,73.3139 189.271,73.1819 C189.099,73.0489 188.961,72.8929 188.855,72.7149 C188.749,72.5379 188.696,72.3329 188.696,72.0989 C188.696,71.8649 188.749,71.6559 188.855,71.4699 C188.961,71.2849 189.103,71.1289 189.28,70.9989 C189.458,70.8699 189.665,70.7699 189.9,70.6999 C190.135,70.6309 190.381,70.5959 190.637,70.5959 C190.912,70.5959 191.168,70.6369 191.408,70.7169 C191.647,70.7979 191.856,70.9119 192.035,71.0569 C192.214,71.2019 192.356,71.3759 192.46,71.5779 C192.565,71.7809 192.618,72.0059 192.621,72.2519 L191.68,72.2519 C191.667,72.1149 191.636,71.9899 191.588,71.8769 C191.539,71.7639 191.471,71.6659 191.384,71.5839 C191.296,71.5019 191.19,71.4389 191.064,71.3939 C190.939,71.3489 190.794,71.3269 190.629,71.3269 C190.488,71.3269 190.357,71.3449 190.237,71.3789 C190.117,71.4129 190.013,71.4649 189.925,71.5319 C189.838,71.5989 189.769,71.6799 189.72,71.7739 C189.67,71.8689 189.645,71.9759 189.645,72.0949 C189.645,72.2219 189.679,72.3319 189.747,72.4249 C189.815,72.5179 189.904,72.5999 190.013,72.6689 C190.123,72.7389 190.25,72.7989 190.392,72.8499 C190.535,72.9009 190.683,72.9469 190.837,72.9889 C191.075,73.0569 191.302,73.1389 191.519,73.2379 C191.736,73.3359 191.927,73.4539 192.092,73.5919 C192.256,73.7299 192.387,73.8899 192.484,74.0709 C192.58,74.2519 192.629,74.4599 192.629,74.6939 C192.629,74.9349 192.575,75.1469 192.468,75.3309 C192.361,75.5149 192.217,75.6699 192.037,75.7929 C191.856,75.9169 191.647,76.0109 191.41,76.0749 C191.172,76.1379 190.923,76.1699 190.664,76.1699 C190.489,76.1699 190.316,76.1539 190.143,76.1209 C189.97,76.0899 189.805,76.0409 189.647,75.9759 C189.489,75.9119 189.342,75.8319 189.206,75.7359 C189.07,75.6399 188.952,75.5289 188.851,75.4039 C188.751,75.2779 188.671,75.1379 188.614,74.9819 C188.556,74.8269 188.526,74.6559 188.524,74.4699 L189.468,74.4699 C189.482,74.6339 189.519,74.7759 189.582,74.8979 C189.645,75.0199 189.728,75.1219 189.833,75.2019 C189.938,75.2829 190.06,75.3449 190.2,75.3859 C190.34,75.4259 190.494,75.4469 190.664,75.4469 C190.806,75.4469 190.938,75.4299 191.06,75.3989 C191.183,75.3659 191.291,75.3179 191.382,75.2549 C191.473,75.1909 191.545,75.1129 191.598,75.0189 C191.65,74.9259 191.676,74.8199 191.676,74.7009" id="Fill-38" fill="#1A1918" mask="url(#mask-6)"></path>
            <polygon id="Fill-39" fill="#1A1918" mask="url(#mask-6)" points="198.1512 76.0988 197.2342 76.0988 197.2342 73.6758 195.2932 73.6758 195.2932 76.0988 194.3792 76.0988 194.3792 70.6698 195.2932 70.6698 195.2932 72.9408 197.2342 72.9408 197.2342 70.6698 198.1512 70.6698"></polygon>
            <polygon id="Fill-40" fill="#1A1918" mask="url(#mask-6)" points="203.5408 73.6643 201.1918 73.6643 201.1918 75.3683 203.9408 75.3683 203.9408 76.0983 200.2468 76.0983 200.2468 70.6703 203.9128 70.6703 203.9128 71.4083 201.1918 71.4083 201.1918 72.9403 203.5408 72.9403"></polygon>
            <polygon id="Fill-41" fill="#1A1918" mask="url(#mask-6)" points="206.9696 75.3686 209.6906 75.3686 209.6906 76.0986 206.0286 76.0986 206.0286 70.6706 206.9696 70.6706"></polygon>
            <polygon id="Fill-42" fill="#1A1918" mask="url(#mask-6)" points="212.7118 75.3686 215.4328 75.3686 215.4328 76.0986 211.7708 76.0986 211.7708 70.6706 212.7118 70.6706"></polygon>
        </g>
    </g>
</svg>